<svg width="214" height="214" viewBox="0 0 214 214" fill="none" xmlns="http://www.w3.org/2000/svg">
<g clip-path="url(#clip0)">
<path d="M132.078 108.672C129.771 108.672 127.898 110.545 127.898 112.852C127.898 115.159 129.771 117.031 132.078 117.031C134.385 117.031 136.258 115.159 136.258 112.852C136.258 110.545 134.385 108.672 132.078 108.672Z" fill="white"/>
<path d="M42.7035 154.559L0.906602 207.223C-0.0909724 208.478 -0.280364 210.194 0.416794 211.637C1.11395 213.082 2.57684 214 4.18015 214H209.821C211.424 214 212.887 213.082 213.584 211.637C214.283 210.194 214.092 208.478 213.094 207.223L171.297 154.559C170.506 153.559 169.299 152.977 168.024 152.977H131.411L162.669 103.95C170.001 92.9572 173.875 80.1373 173.875 66.875C173.875 30.0007 143.876 0 107 0C70.1245 0 40.1255 30.0007 40.1255 66.875C40.1255 80.1373 43.9998 92.9556 51.3322 103.95L82.5901 152.977H45.977C44.7019 152.977 43.497 153.559 42.7035 154.559V154.559ZM27.0982 187.668H52.3706L38.1075 205.641H12.8334L27.0982 187.668ZM87.9208 161.336L99.3791 179.309H69.6772L83.942 161.336H87.9208ZM126.082 161.336H130.061L144.324 179.309H114.623L126.082 161.336ZM150.959 187.668L165.222 205.641H48.7787L63.0435 187.668H150.959ZM175.895 205.641L161.63 187.668H186.904L201.168 205.641H175.895ZM180.269 179.309H154.997L140.732 161.336H166.006L180.269 179.309ZM58.3104 99.3459C51.8825 89.7229 48.4848 78.4949 48.4848 66.875C48.4848 34.6098 74.7352 8.35938 107 8.35938C139.266 8.35938 165.516 34.6098 165.516 66.875C165.516 78.4949 162.118 89.7229 155.692 99.3459C155.674 99.3704 155.66 99.3949 155.643 99.4194C152.899 103.725 109.115 172.399 107 175.713C101.683 167.372 63.7733 107.913 58.3577 99.4194C58.343 99.3949 58.3267 99.3704 58.3104 99.3459V99.3459ZM73.2691 161.336L59.0059 179.309H33.7318L47.9967 161.336H73.2691Z" fill="white"/>
<path d="M107 108.672C129.946 108.672 148.797 90.0902 148.797 66.875C148.797 43.8279 130.047 25.0781 107 25.0781C83.9529 25.0781 65.2031 43.8279 65.2031 66.875C65.2031 90.0968 84.0607 108.672 107 108.672ZM107 33.4375C125.438 33.4375 140.438 48.437 140.438 66.875C140.438 85.4844 125.317 100.312 107 100.312C88.6779 100.312 73.5625 85.4844 73.5625 66.875C73.5625 48.437 88.562 33.4375 107 33.4375Z" fill="white"/>
<path d="M124.605 122.935C122.63 121.743 120.06 122.38 118.868 124.357L103.42 149.987C102.228 151.964 102.864 154.532 104.842 155.724C106.827 156.921 109.392 156.271 110.579 154.302L126.027 128.672C127.219 126.695 126.583 124.127 124.605 122.935V122.935Z" fill="white"/>
</g>
<defs>
<clipPath id="clip0">
<rect width="214" height="214" fill="white"/>
</clipPath>
</defs>
</svg>
