<svg width="338" height="338" viewBox="0 0 338 338" fill="none" xmlns="http://www.w3.org/2000/svg">
<g clip-path="url(#clip0)">
<path d="M332.8 170.2C335.6 167.4 337.2 163.8 337.2 159.8V131.4C337.2 127.4 335.6 123.4 332.8 121C330 118.6 326 116.6 322 116.6H290C290 115.8 290.4 115 290.4 114.2V85.8C290.4 81.8 288.8 77.8 286 75.4C283.2 72.6 279.6 71 275.6 71H243.6C243.6 70.2 244 69.4 244 68.6V40.6C244 36.6 242.4 32.6 239.6 30.2C236.8 27.4 233.2 25.8 229.2 25.8H154C150.8 25.8 148 27 145.6 29C143.2 27.4 140.4 25.8 137.2 25.8H61.2C57.2 25.8 53.2 27.4 50.8 30.2C48 33 46.4 36.6 46.4 40.6V69C46.4 69.8 46.8 70.6 46.8 71.4H14.8C10.8 71.4 7.2 73 4.8 75.4L4.4 75.8C1.6 78.6 0 82.2 0 86.2V114.6C0 118.6 1.6 122.6 4.4 125C7.2 127.8 10.8 129.4 14.8 129.4H46.8C46.8 130.2 46.4 131 46.4 131.8V160.2C46.4 161 46.8 161.8 46.8 162.6H14.8C10.8 162.6 7.2 164.2 4.8 166.6L4.4 167C1.6 169.8 0 173.4 0 177.4V205.8C0 209.8 1.6 213.8 4.4 216.2C7.2 219 10.8 220.6 14.8 220.6H46.8C46.8 221.4 46.4 222.2 46.4 223V251.4C46.4 252.2 46.8 253 46.8 253.8H14.8C10.8 253.8 7.2 255.4 4.8 257.8L4.4 258.2C1.6 261 0 264.6 0 268.6V296.6C0 300.6 1.6 304.6 4.4 307C7.2 309.8 10.8 311.4 14.8 311.4H90.4C93.6 311.4 96.4 310.2 99.2 308.2C101.6 309.8 104.4 311.4 107.6 311.4H183.2C186.4 311.4 189.2 310.2 192 308.2C194.4 309.8 197.2 311.4 200.4 311.4H276C280 311.4 284 309.8 286.4 307C289.2 304.2 290.8 300.6 290.8 296.6V268.2C290.8 267.4 290.4 266.6 290.4 265.8H322.4C326.4 265.8 330.4 264.2 332.8 261.4C335.6 258.6 337.2 255 337.2 251V222.6C337.2 218.6 335.6 214.6 332.8 212.2C330 209.4 326.4 207.8 322.4 207.8H290.4C290.4 207 290.8 206.2 290.8 205.4V177C290.8 176.2 290.4 175.4 290.4 174.6H322.4C326.4 174.6 330.4 173 332.8 170.2ZM275.6 83.8C276.4 83.8 276.8 84.2 277.2 84.6C277.6 85 278 85.4 278 86.2V114.6C278 115.4 277.6 115.8 277.2 116.2C276.8 116.6 276.4 116.6 275.6 116.6H246.4H229.2H200C199.2 116.6 198.8 116.2 198.4 115.8C198 115.4 197.6 115 197.6 114.2V85.8C197.6 85 198 84.6 198.4 84.2C198.8 83.8 199.2 83.8 200 83.8H229.2H275.6ZM231.6 160.2C231.6 161 231.2 161.4 230.8 161.8C230.4 162.2 230 162.6 229.2 162.6H200H182.8H153.6C152.8 162.6 152.4 162.2 152 161.8C151.6 161.4 151.2 161 151.2 160.2V131.8C151.2 131 151.6 130.6 152 130.2C152.4 129.8 152.8 129.4 153.6 129.4H182.8H200H229.2C230 129.4 230.4 129.8 230.8 130.2C231.2 130.6 231.6 131 231.6 131.8V160.2ZM246.4 175.4H275.6C276.4 175 276.8 175.4 277.2 175.8C277.6 176.2 278 176.6 278 177.4V205.8C278 206.6 277.6 207 277.2 207.4C276.8 207.8 276.4 208.2 275.6 208.2H246.4H229.2H200C199.2 208.2 198.8 207.8 198.4 207.4C198 207 197.6 206.6 197.6 205.8V177.4C197.6 176.6 198 176.2 198.4 175.8C198.8 175.4 199.2 175.4 200 175.4H229.2H246.4ZM104.8 177C104.8 176.2 105.2 175.8 105.6 175.4C106 175 106.4 175 107.2 175H136.4H153.6H182.8C183.6 175 184 175.4 184.4 175.8C184.8 176.2 185.2 176.6 185.2 177.4V205.4C185.2 206.2 184.8 206.6 184.4 207C184 207.4 183.6 207.8 182.8 207.8H153.6H136.4H107.2C106.4 207.8 106 207.4 105.6 207C105.2 206.6 104.8 206.2 104.8 205.4V177V177ZM90.4 162.2H61.2C60.4 162.2 60 161.8 59.6 161.4C59.2 161 58.8 160.6 58.8 159.8V131.4C58.8 130.6 59.2 130.2 59.6 129.8C60 129.4 60.4 129 61.2 129H90.4H107.6H136.8C137.6 129 138 129.4 138.4 129.8C138.8 130.2 139.2 130.6 139.2 131.4V159.8C139.2 160.6 138.8 161 138.4 161.4C138 161.8 137.6 162.2 136.8 162.2H107.6H90.4ZM151.6 40.6C151.6 40.2 152 39.4 152.4 39C152.8 38.6 153.2 38.2 154 38.2H229.6C230.4 38.2 230.8 38.6 231.2 39C231.6 39.4 232 39.8 232 40.6V69C232 69.8 231.6 70.2 231.2 70.6C230.8 71 230.4 71.4 229.6 71.4H200.4H183.2H154C153.2 71.4 152.8 71 152.4 70.6C152 70.2 151.6 69.8 151.6 69V40.6ZM154 84.2H183.2C184 84.2 184.4 84.6 184.8 85C185.2 85.4 185.6 85.8 185.6 86.6V115C185.6 115.8 185.2 116.2 184.8 116.6C184 116.6 183.6 116.6 182.8 116.6H153.6H136.4H107.2C106.8 116.6 106.4 116.6 106 116.2C105.6 115.8 105.2 115.4 105.2 114.6V86.2C105.2 85.4 105.6 85 106 84.6C106.4 84.2 106.8 84.2 107.6 84.2H136.8H154ZM58.8 40.6C58.8 39.8 59.2 39.4 59.6 39C60 38.6 60.4 38.2 61.2 38.2H136.8C137.6 38.2 138 38.6 138.4 39C138.8 39.4 139.2 39.8 139.2 40.6V69C139.2 69.8 138.8 70.2 138.4 70.6C138 71 137.6 71.4 136.8 71.4H107.6H90.4H61.2C60.4 71.4 60 71 59.6 70.6C59.2 70.2 58.8 69.8 58.8 69V40.6V40.6ZM14.8 116.6C14 116.6 13.6 116.6 13.2 116.2C12.8 115.8 12.4 115.4 12.4 114.6V86.2C12.4 85.4 12.8 85 13.2 84.6C13.6 84.2 14 84.2 14.8 84.2H61.2H90.4C91.2 84.2 91.6 84.6 92 85C92.4 85.4 92.8 85.8 92.8 86.6V115C92.8 115.8 92.4 116.2 92 116.6C91.6 116.6 90.8 116.6 90.4 116.6H61.2H14.8ZM14.8 207.8C14 207.8 13.6 207.4 13.2 207C12.8 206.6 12.4 206.2 12.4 205.4V177C12.4 176.2 12.8 175.8 13.2 175.4C13.6 175 14 175 14.8 175H61.2H90.4C91.2 175 91.6 175.4 92 175.8C92.4 176.2 92.4 176.6 92.4 177V205.4C92.4 206.2 92 206.6 91.6 207C91.2 207.4 90.8 207.8 90 207.8H60.8H14.8ZM92.8 296.6C92.4 297 92.4 297.8 92 298.2C91.6 298.6 91.2 299 90.4 299H14.8C14 299 13.6 298.6 13.2 298.2C12.8 297.8 12.4 297 12.4 296.6V268.2C12.4 267.4 12.8 267 13.2 266.6C13.6 266.2 14 266.2 14.8 266.2H61.2H90.4C91.2 266.2 91.6 266.6 92 267C92.4 267.4 92.8 267.8 92.8 268.6V296.6ZM90.4 253.8H61.2C60.4 253.4 60 253 59.6 252.6C59.2 252.2 58.8 251.8 58.8 251V222.6C58.8 221.8 59.2 221.4 59.6 221C60 220.6 60.4 220.6 61.2 220.6H90.4H107.6H136.8C137.6 220.6 138 221 138.4 221.4C138.8 221.8 139.2 222.2 139.2 223V251.4C139.2 252.2 138.8 252.6 138.4 253C138 253.4 137.6 253.8 136.8 253.8H107.6H90.4V253.8ZM185.6 296.6C185.2 297 184.8 297.8 184.4 298.2C184 298.6 183.6 299 182.8 299H107.6C106.8 299 106.4 298.6 106 298.2C105.6 297.8 105.2 297.4 105.2 296.6V268.2C105.2 267.4 105.6 267 106 266.6C106.4 266.2 106.8 266.2 107.6 266.2H136.8H154H183.2C184 266.2 184.4 266.6 184.8 267C185.2 267.4 185.6 267.8 185.6 268.6V296.6ZM182.8 253.4H153.6C152.8 253.4 152.4 253 152 252.6C151.6 252.2 151.2 251.8 151.2 251V222.6C151.2 221.8 151.6 221.4 152 221C152.4 220.6 152.8 220.2 153.6 220.2H182.8H200H229.2C230 220.6 230.4 220.6 230.8 221C231.2 221.4 231.6 221.8 231.6 222.6V251C231.6 251.8 231.2 252.2 230.8 252.6C230.4 253 230 253.4 229.2 253.4H200H182.8ZM278 296.6C278 297.4 277.6 297.8 277.2 298.2C276.8 298.6 276.4 299 275.6 299H200C199.2 299 198.8 298.6 198.4 298.2C198 297.8 197.6 297.4 197.6 296.6V268.2C197.6 267.4 198 267 198.4 266.6C198.8 266.2 199.2 266.2 200 266.2H229.2H246.4H275.6C276.4 265.8 276.8 266.2 277.2 266.6C277.6 267 278 267.4 278 268.2V296.6ZM322.4 220.2C322.8 220.6 323.2 220.6 323.6 221C324 221.4 324.4 221.8 324.4 222.6V251C324.4 251.8 324 252.2 323.6 252.6C323.2 253 322.8 253.4 322 253.4H275.6H246.4C245.6 253.4 245.2 253 244.8 252.6C244.4 252.2 244.4 251.4 244.4 251V222.6C244.4 221.8 244.8 221.4 245.2 221C245.6 220.6 246 220.2 246.8 220.2H276H322.4ZM275.6 162.6H246.4C245.6 162.6 245.2 162.2 244.8 161.8C244.4 161 244.4 160.6 244.4 160.2V131.8C244.4 131 244.8 130.6 245.2 130.2C245.6 129.8 246 129.4 246.8 129.4H276H322.4C323.2 129.4 323.6 129.8 324 130.2C324.4 130.6 324.8 131 324.8 131.8V160.2H324.4C324.4 161 324 161.4 323.6 161.8C323.2 162.2 322.8 162.6 322 162.6H275.6Z" fill="url(#paint0_linear)"/>
</g>
<defs>
<linearGradient id="paint0_linear" x1="-8.23208e-07" y1="26" x2="391.5" y2="408" gradientUnits="userSpaceOnUse">
<stop offset="0.147305" stop-color="#4459F2"/>
<stop offset="1" stop-color="#FFA500"/>
</linearGradient>
<clipPath id="clip0">
<rect width="337.2" height="337.2" fill="white"/>
</clipPath>
</defs>
</svg>
