<svg width="426" height="426" viewBox="0 0 426 426" fill="none" xmlns="http://www.w3.org/2000/svg">
<g clip-path="url(#clip0)">
<rect width="426" height="426" fill="white"/>
<path d="M417.059 243.759L386.191 229.921C383.422 228.678 380.414 228.32 377.525 228.801V185.154C377.525 168.566 364.078 155.119 347.49 155.119H334.462V132.888H401.025C404.519 132.888 407.352 130.055 407.352 126.561V24.9119C407.352 21.4182 404.519 18.5851 401.025 18.5851H334.462V10.5593C334.462 7.09475 331.793 4.07364 328.33 3.97046C324.747 3.8623 321.809 6.73448 321.809 10.2947V18.5851H255.239C251.746 18.5851 248.913 21.4182 248.913 24.9119V126.56C248.913 130.053 251.746 132.886 255.239 132.886H321.809V155.118H236.708C227.079 155.118 218.499 159.678 212.999 166.746C207.499 159.678 198.92 155.118 189.29 155.118H116.004C112.511 155.118 109.678 157.951 109.678 161.444C109.678 164.938 112.511 167.771 116.004 167.771H189.29C198.89 167.771 206.672 175.553 206.672 185.153V306.721H61.1277V243.726V185.152C61.1277 175.552 68.9097 167.77 78.5097 167.77H86.7726C90.2664 167.77 93.0994 164.937 93.0994 161.443C93.0994 157.95 90.2664 155.117 86.7726 155.117H78.5106C61.9223 155.117 48.4758 168.564 48.4758 185.151V228.797C45.5878 228.316 42.5792 228.676 39.8102 229.918L8.94262 243.757C3.04184 246.401 -0.525913 252.505 0.06483 258.945L12.4139 393.569C12.7126 396.826 15.4441 399.317 18.7148 399.317H54.8018H74.8355V415.706C74.8355 419.2 77.6685 422.033 81.1622 422.033H126.401C129.894 422.033 132.727 419.2 132.727 415.706V399.317H293.273V415.706C293.273 419.2 296.106 422.033 299.6 422.033H344.838C348.332 422.033 351.165 419.2 351.165 415.706V399.317H371.199H407.286C410.556 399.317 413.287 396.825 413.587 393.569L425.938 258.946C426.527 252.507 422.959 246.404 417.059 243.759ZM48.475 386.665H24.4867L12.6635 257.792C12.5661 256.738 13.1502 255.739 14.117 255.306L44.9855 241.468C46.0571 240.988 46.9224 241.377 47.3443 241.649C47.7661 241.922 48.475 242.555 48.475 243.727V386.665V386.665ZM261.567 120.233V31.2387H328.053C328.08 31.2387 328.107 31.2428 328.135 31.2428C328.162 31.2428 328.189 31.2387 328.216 31.2387H394.697V120.233H261.567ZM120.073 409.38H87.4882V399.318H120.073V409.38ZM338.511 409.38H305.926V399.318H338.511V409.38ZM364.871 358.971H280.949C277.455 358.971 274.622 361.805 274.622 365.298C274.622 368.792 277.455 371.625 280.949 371.625H364.871V386.664H344.838H299.599H126.4H81.1614H61.1277V371.625H251.717C255.211 371.625 258.044 368.792 258.044 365.298C258.044 361.805 255.211 358.971 251.717 358.971H61.1277V319.373H213H364.871V358.971ZM364.871 306.721H219.326V185.153C219.326 175.569 227.124 167.771 236.709 167.771H328.086C328.103 167.771 328.119 167.774 328.135 167.774C328.152 167.774 328.168 167.771 328.185 167.771H347.49C357.074 167.771 364.872 175.568 364.872 185.153V306.721H364.871ZM413.336 257.791L401.512 386.664H377.525V243.726C377.525 242.554 378.233 241.92 378.656 241.648C379.077 241.377 379.946 240.987 381.014 241.467L411.883 255.305C412.849 255.739 413.433 256.738 413.336 257.791Z" fill="url(#paint0_linear)"/>
<path d="M265.623 204.66C263.576 199.546 256.01 199.595 253.94 204.66C252.9 207.205 253.639 210.23 255.771 211.974C257.815 213.645 260.754 213.86 263.022 212.517C265.693 210.935 266.806 207.521 265.623 204.66Z" fill="url(#paint1_linear)"/>
<path d="M330.258 204.66C328.151 199.667 320.832 199.526 318.63 204.52C317.511 207.056 318.205 210.125 320.327 211.915C322.285 213.567 325.133 213.869 327.393 212.661C330.261 211.128 331.429 207.655 330.258 204.66Z" fill="url(#paint2_linear)"/>
<path d="M265.623 264.992C263.601 259.826 256.032 259.956 253.945 264.989C252.936 267.421 253.575 270.328 255.536 272.096C257.551 273.91 260.549 274.23 262.906 272.904C265.637 271.369 266.846 267.885 265.623 264.992Z" fill="url(#paint3_linear)"/>
<path d="M330.258 264.992C329.294 262.659 326.942 261.077 324.413 261.078C321.762 261.078 319.357 262.799 318.461 265.28C317.565 267.757 318.359 270.632 320.399 272.298C322.569 274.07 325.723 274.191 328.025 272.597C330.453 270.917 331.347 267.717 330.258 264.992Z" fill="url(#paint4_linear)"/>
<path d="M105.275 201.944C103.236 200.496 100.486 200.383 98.338 201.661C95.6921 203.235 94.5464 206.655 95.747 209.502C97.9519 214.729 105.607 214.539 107.543 209.214C108.492 206.605 107.537 203.551 105.275 201.944Z" fill="url(#paint5_linear)"/>
<path d="M172.418 205.85C171.301 200.474 164.021 198.957 160.954 203.573C159.448 205.841 159.576 208.855 161.246 211.001C162.927 213.159 165.944 213.97 168.487 212.985C171.301 211.893 173.039 208.829 172.418 205.85Z" fill="url(#paint6_linear)"/>
<path d="M98.3921 261.954C95.7105 263.516 94.5365 266.954 95.7479 269.825C96.8071 272.335 99.3855 273.94 102.117 273.709C104.736 273.487 106.974 271.625 107.683 269.095C109.189 263.724 103.177 259.166 98.3921 261.954Z" fill="url(#paint7_linear)"/>
<path d="M172.055 264.992C171.05 262.556 168.541 260.954 165.904 261.089C163.371 261.218 161.117 262.896 160.26 265.279C158.297 270.734 164.431 275.765 169.41 272.863C172.088 271.303 173.268 267.857 172.055 264.992Z" fill="url(#paint8_linear)"/>
</g>
<defs>
<linearGradient id="paint0_linear" x1="0.00121966" y1="4.26029" x2="564.896" y2="479.962" gradientUnits="userSpaceOnUse">
<stop offset="0.147305" stop-color="#4459F2"/>
<stop offset="1" stop-color="#FFA500"/>
</linearGradient>
<linearGradient id="paint1_linear" x1="253.474" y1="200.852" x2="270.392" y2="214.911" gradientUnits="userSpaceOnUse">
<stop offset="0.147305" stop-color="#4459F2"/>
<stop offset="1" stop-color="#FFA500"/>
</linearGradient>
<linearGradient id="paint2_linear" x1="318.1" y1="200.853" x2="335.018" y2="214.896" gradientUnits="userSpaceOnUse">
<stop offset="0.147305" stop-color="#4459F2"/>
<stop offset="1" stop-color="#FFA500"/>
</linearGradient>
<linearGradient id="paint3_linear" x1="253.472" y1="261.175" x2="270.391" y2="275.245" gradientUnits="userSpaceOnUse">
<stop offset="0.147305" stop-color="#4459F2"/>
<stop offset="1" stop-color="#FFA500"/>
</linearGradient>
<linearGradient id="paint4_linear" x1="318.096" y1="261.087" x2="335.109" y2="275.128" gradientUnits="userSpaceOnUse">
<stop offset="0.147305" stop-color="#4459F2"/>
<stop offset="1" stop-color="#FFA500"/>
</linearGradient>
<linearGradient id="paint5_linear" x1="95.271" y1="200.783" x2="112.185" y2="214.866" gradientUnits="userSpaceOnUse">
<stop offset="0.147305" stop-color="#4459F2"/>
<stop offset="1" stop-color="#FFA500"/>
</linearGradient>
<linearGradient id="paint6_linear" x1="159.904" y1="200.84" x2="176.847" y2="214.922" gradientUnits="userSpaceOnUse">
<stop offset="0.147305" stop-color="#4459F2"/>
<stop offset="1" stop-color="#FFA500"/>
</linearGradient>
<linearGradient id="paint7_linear" x1="95.271" y1="261.118" x2="112.275" y2="275.198" gradientUnits="userSpaceOnUse">
<stop offset="0.147305" stop-color="#4459F2"/>
<stop offset="1" stop-color="#FFA500"/>
</linearGradient>
<linearGradient id="paint8_linear" x1="159.884" y1="261.09" x2="176.899" y2="275.169" gradientUnits="userSpaceOnUse">
<stop offset="0.147305" stop-color="#4459F2"/>
<stop offset="1" stop-color="#FFA500"/>
</linearGradient>
<clipPath id="clip0">
<rect width="426" height="426" fill="white"/>
</clipPath>
</defs>
</svg>
