<svg width="432" height="414" viewBox="0 0 432 414" fill="none" xmlns="http://www.w3.org/2000/svg">
<path d="M422.608 0H9.39159C4.20759 0 0 4.03228 0 9.00028V405C0 409.968 4.20759 414 9.39159 414H84.5217C89.7057 414 93.9133 409.968 93.9133 405V395.999H338.087V405C338.087 409.968 342.294 414 347.478 414H422.608C427.792 414 432 409.968 432 405V9.00028C432 4.03228 427.792 0 422.608 0ZM413.217 395.999H356.869V386.999C356.869 382.031 352.661 377.999 347.477 377.999H84.5217C79.3377 377.999 75.1301 382.031 75.1301 386.999V395.999H18.7823V17.9997H413.217V395.999V395.999Z" fill="url(#paint0_linear)"/>
<path d="M347.478 90.0002H84.5217C79.3377 90.0002 75.1301 94.0325 75.1301 99.0005V387C75.1301 391.968 79.3377 396 84.5217 396H347.478C352.662 396 356.87 391.968 356.87 387V98.9996C356.869 94.0316 352.662 90.0002 347.478 90.0002ZM338.087 378H93.9133V108H338.087V378Z" fill="url(#paint1_linear)"/>
<path d="M215.999 90.0002C210.815 90.0002 206.608 94.0325 206.608 99.0005V387C206.608 391.968 210.815 396 215.999 396C221.183 396 225.391 391.968 225.391 387V98.9996C225.391 94.0316 221.183 90.0002 215.999 90.0002Z" fill="url(#paint2_linear)"/>
<path d="M385.043 198C390.23 198 394.435 193.971 394.435 189C394.435 184.029 390.23 180 385.043 180C379.856 180 375.651 184.029 375.651 189C375.651 193.971 379.856 198 385.043 198Z" fill="url(#paint3_linear)"/>
<path d="M385.043 234C390.23 234 394.435 229.971 394.435 225C394.435 220.029 390.23 216 385.043 216C379.856 216 375.651 220.029 375.651 225C375.651 229.971 379.856 234 385.043 234Z" fill="url(#paint4_linear)"/>
<path d="M185.084 56.646L166.302 38.6463C162.639 35.1363 156.685 35.1363 153.022 38.6463L134.24 56.646C130.577 60.156 130.577 65.8623 134.24 69.3723C137.902 72.8822 143.857 72.8822 147.519 69.3723L159.653 57.726L171.786 69.3723C173.627 71.118 176.031 72.0005 178.435 72.0005C180.839 72.0005 183.243 71.1188 185.084 69.3723C188.747 65.8623 188.747 60.156 185.084 56.646Z" fill="url(#paint5_linear)"/>
<path d="M297.76 38.6463C294.098 35.1363 288.143 35.1363 284.481 38.6463L272.347 50.274L260.195 38.6463C256.532 35.1363 250.578 35.1363 246.915 38.6463C243.253 42.1563 243.253 47.8625 246.915 51.3725L265.697 69.3722C267.538 71.118 269.942 72.0005 272.347 72.0005C274.751 72.0005 277.155 71.1188 278.977 69.3722L297.759 51.3725C301.423 47.8617 301.423 42.1563 297.76 38.6463Z" fill="url(#paint6_linear)"/>
<defs>
<linearGradient id="paint0_linear" x1="-1.05464e-06" y1="0.289935" x2="561.513" y2="484.513" gradientUnits="userSpaceOnUse">
<stop offset="0.147305" stop-color="#4459F2"/>
<stop offset="1" stop-color="#FFA500"/>
</linearGradient>
<linearGradient id="paint1_linear" x1="75.1301" y1="90.2145" x2="479.53" y2="397.923" gradientUnits="userSpaceOnUse">
<stop offset="0.147305" stop-color="#4459F2"/>
<stop offset="1" stop-color="#FFA500"/>
</linearGradient>
<linearGradient id="paint2_linear" x1="206.608" y1="90.2145" x2="249.069" y2="92.3685" gradientUnits="userSpaceOnUse">
<stop offset="0.147305" stop-color="#4459F2"/>
<stop offset="1" stop-color="#FFA500"/>
</linearGradient>
<linearGradient id="paint3_linear" x1="375.651" y1="180.012" x2="400.066" y2="201.066" gradientUnits="userSpaceOnUse">
<stop offset="0.147305" stop-color="#4459F2"/>
<stop offset="1" stop-color="#FFA500"/>
</linearGradient>
<linearGradient id="paint4_linear" x1="375.651" y1="216.012" x2="400.066" y2="237.066" gradientUnits="userSpaceOnUse">
<stop offset="0.147305" stop-color="#4459F2"/>
<stop offset="1" stop-color="#FFA500"/>
</linearGradient>
<linearGradient id="paint5_linear" x1="131.493" y1="36.039" x2="179.253" y2="97.8224" gradientUnits="userSpaceOnUse">
<stop offset="0.147305" stop-color="#4459F2"/>
<stop offset="1" stop-color="#FFA500"/>
</linearGradient>
<linearGradient id="paint6_linear" x1="244.168" y1="36.039" x2="291.921" y2="97.8213" gradientUnits="userSpaceOnUse">
<stop offset="0.147305" stop-color="#4459F2"/>
<stop offset="1" stop-color="#FFA500"/>
</linearGradient>
</defs>
</svg>
