<svg width="234" height="234" viewBox="0 0 234 234" fill="none" xmlns="http://www.w3.org/2000/svg">
<path d="M215.172 153.818C200.762 153.818 186.647 151.567 173.269 147.153C166.74 144.903 159.326 146.637 155.035 151.014L128.513 171.044C98.0817 154.801 78.6056 135.337 62.5846 105.127L82.0729 79.2326C86.9788 74.3267 88.7373 67.1459 86.6348 60.4204C82.1836 46.9568 79.9214 32.8292 79.9214 18.4433C79.9214 8.27472 71.6467 0 61.478 0H18.4433C8.27472 0 0 8.27472 0 18.4433C0 137.083 96.5325 233.616 215.172 233.616C225.341 233.616 233.616 225.341 233.616 215.172V172.261C233.616 162.092 225.341 153.818 215.172 153.818Z" fill="white"/>
</svg>
